<svg width="140" height="140" viewBox="0 0 140 140" fill="none" xmlns="http://www.w3.org/2000/svg">
<g opacity="0.8">
<path fill-rule="evenodd" clip-rule="evenodd" d="M0 70C0 31.3401 31.3401 0 70 0C108.66 0 140 31.3401 140 70C140 108.66 108.66 140 70 140H0.0418584C1.06221 138.314 2.48381 136.872 4.3066 135.676C7.27307 133.728 10.7691 133.607 14.6376 133.475C20.6086 133.268 27.4699 133.03 34.6546 126H69.9998C100.928 126 126 100.928 126 69.9998C126 39.0718 100.928 13.9998 69.9998 13.9998C39.0718 13.9998 13.9998 39.0718 13.9998 69.9998V115.102C9.77076 115.998 5.27491 118.058 0.658769 123.049C0.433533 123.293 0.213944 123.537 0 123.781V70Z" fill="black"/>
<path fill-rule="evenodd" clip-rule="evenodd" d="M69.9999 27.7357C46.658 27.7357 27.7357 46.658 27.7357 69.9999V110.916C29.3296 110.615 30.8249 110.104 32.2058 109.197C37.4067 105.785 39.3418 100.379 38.0098 92.9813C42.4095 99.7265 43.6414 106.154 41.7054 112.264H69.9999C93.3417 112.264 112.264 93.3417 112.264 69.9999C112.264 46.658 93.3417 27.7357 69.9999 27.7357Z" fill="black"/>
</g>
</svg>
