<svg width="24" height="24" viewBox="0 0 101 101" fill="none" xmlns="http://www.w3.org/2000/svg">
<path fill-rule="evenodd" clip-rule="evenodd" d="M50.709 17.7112C32.4836 17.7112 17.709 32.4858 17.709 50.7112L17.709 81.23C19.24 81.1141 20.7191 81.1127 22.1416 81.1115C25.6 81.1101 28.7254 81.1072 31.4503 79.4573C36.2264 76.5658 38.1673 71.7969 37.2717 65.1494C41.212 71.7768 41.8915 77.9637 39.309 83.7112L50.709 83.7112C68.9344 83.7112 83.709 68.9366 83.709 50.7112C83.709 32.4858 68.9344 17.7112 50.709 17.7112Z" fill="black"/>
<path fill-rule="evenodd" clip-rule="evenodd" d="M34.3387 90.7109L50.709 90.7109C72.8004 90.711 90.709 72.8023 90.709 50.711C90.709 28.6196 72.8004 10.711 50.709 10.7109C28.6176 10.7109 10.709 28.6196 10.709 50.7109L10.709 82.8178C8.19041 83.8602 5.56889 85.5403 2.85984 88.2494C2.07287 89.0364 1.35591 89.8328 0.708969 90.6386L0.708976 50.7109C0.70898 23.0967 23.0947 0.710941 50.709 0.710946C78.3232 0.710951 100.709 23.0967 100.709 50.711C100.709 78.3252 78.3232 100.711 50.709 100.711L10.709 100.711L4.07577 100.711C4.55176 100.327 5.06556 99.9683 5.61718 99.6346C8.3432 97.9836 11.4686 97.9806 14.9259 97.9781C20.5624 97.9754 27.0811 97.9692 34.2079 90.8425C34.2517 90.7987 34.2953 90.7548 34.3387 90.7109Z" fill="black"/>
</svg>
