<svg class="c-style" width="20" height="20" viewBox="0 0 20 20"  xmlns="http://www.w3.org/2000/svg">
<g opacity="1">
<path fill-rule="evenodd" clip-rule="evenodd" d="M0 10C0 4.47715 4.47715 0 10 0C15.5228 0 20 4.47715 20 10C20 15.5228 15.5228 20 10 20H0.00597891C0.151744 19.7591 0.354833 19.5532 0.615237 19.3822C1.03902 19.104 1.53845 19.0866 2.09109 19.0678C2.94408 19.0383 3.92425 19.0043 4.95062 18H10C14.4183 18 18 14.4183 18 10C18 5.58172 14.4183 2 10 2C5.58172 2 2 5.58172 2 10V16.4431C1.39585 16.5712 0.753575 16.8655 0.0941178 17.5784C0.0619385 17.6132 0.0305659 17.6481 0 17.6831V10Z" fill="currentColor"/>
<path fill-rule="evenodd" clip-rule="evenodd" d="M10 3.96228C6.66547 3.96228 3.96228 6.66547 3.96228 10V15.8451C4.18996 15.8021 4.40357 15.7291 4.60083 15.5996C5.34382 15.1121 5.62026 14.3399 5.42998 13.283C6.05852 14.2467 6.2345 15.1649 5.95792 16.0378H10C13.3346 16.0378 16.0378 13.3346 16.0378 10C16.0378 6.66547 13.3346 3.96228 10 3.96228Z" fill="currentColor"/>
</g>
</svg>
